# xmcd
#
# Track frame offsets:
#	150
#	17682
#	28487
#	47475
#	62577
#	74652
#	88580
#	102135
#	114697
#	132010
#
# Disc length: 1970 seconds
#
# Revision: 9
# Processed by: cddbd v1.5.2PL0 Copyright (c) Steve Scherf et al.
# Submitted via: audiograbber 1.83.01
#
DISCID=8607b00a
DTITLE=Mark Chesnutt - Longnecks and Short Stories
DYEAR=1992
DGENRE=Country
TTITLE0=Old Country
TTITLE1=Old Flames Have New Names
TTITLE2=I'll Think Of Something
TTITLE3=It's Not Over {If I'm Not Over You}
TTITLE4=Uptown Downtown {Misery's All The Same}
TTITLE5=Bubba Shot The Jukebox
TTITLE6=Postpone The Pain
TTITLE7=Talking To Hank
TTITLE8=I'm Not Getting Any Better At Goodbyes
TTITLE9=Who Will The Next Fool Be?
EXTD=YEAR: 1992
EXTT0=
EXTT1=
EXTT2=
EXTT3=
EXTT4=
EXTT5=
EXTT6=
EXTT7=
EXTT8=
EXTT9=
PLAYORDER=
